<svg version="1.1" id="Layer_1" xmlns="http://www.w3.org/2000/svg" xmlns:xlink="http://www.w3.org/1999/xlink" x="0px" y="0px"
	 width="100%" viewBox="0 0 400 400" enable-background="new 0 0 400 400" xml:space="preserve">
<path fill="#000000" opacity="1.000000" stroke="none" 
	d="
M401.000000,260.533142 
	C396.127472,271.904480 392.450409,283.304565 386.785645,293.892700 
	C370.803040,323.766235 349.094910,348.443878 320.538116,366.771332 
	C303.748901,377.546448 286.109009,386.528870 266.898468,392.649933 
	C256.243011,396.045074 245.314743,397.672485 234.315445,400.786743 
	C215.979111,401.000000 197.958206,401.000000 179.468658,401.000000 
	C169.772720,398.375458 160.365997,396.000031 151.037338,394.352081 
	C136.993576,391.871277 124.233849,386.755280 111.839874,380.339050 
	C89.802223,368.930450 69.701462,354.685150 53.214832,336.063690 
	C39.883553,321.006195 27.376205,305.186127 19.507168,286.310120 
	C17.916424,282.494293 15.890753,278.854248 13.975499,275.180176 
	C7.075037,261.942810 5.881626,247.323380 3.733220,232.943115 
	C2.781153,226.570496 2.063401,220.162903 1.119642,213.385590 
	C1.000000,205.312424 1.000000,197.624832 1.000000,189.468628 
	C1.608021,177.211304 4.197118,165.688416 5.823085,154.039124 
	C7.185755,144.276215 11.520303,135.369247 15.335035,126.344986 
	C24.856506,103.820702 38.642765,84.067123 55.064098,66.180046 
	C63.028191,57.505089 72.118050,49.877663 81.241600,42.379272 
	C94.333038,31.619787 109.187065,23.590254 124.774315,17.551647 
	C144.571884,9.881931 164.804886,3.017418 186.639832,1.155148 
	C193.687637,1.000000 200.375290,1.000000 207.531464,1.000000 
	C214.680405,2.639266 221.542358,1.328945 228.327652,2.535287 
	C246.646957,5.792227 264.905060,8.622638 282.304016,16.073101 
	C295.138855,21.569130 307.516724,27.654690 319.320099,35.008549 
	C320.923218,36.007317 322.926666,36.917286 322.731689,40.931541 
	C298.333313,25.071428 271.708923,16.199932 244.645142,7.951528 
	C245.093765,10.828536 243.146790,10.556702 241.294342,10.137113 
	C227.189545,6.942304 212.944305,5.243837 198.450424,5.227002 
	C192.172684,5.219711 186.292496,6.979825 180.341415,8.240594 
	C173.125839,9.769252 165.941620,9.209697 159.188141,9.283987 
	C156.927704,10.276074 159.335388,12.014298 158.377167,12.635611 
	C146.223175,15.676860 134.670380,18.805702 124.090454,25.048435 
	C115.846245,29.912966 106.503937,32.205288 98.282120,37.894611 
	C89.130722,44.227200 79.381538,49.754787 71.207611,57.409531 
	C58.593536,69.222397 46.646259,81.594902 37.068741,96.190369 
	C29.170658,108.226509 23.093525,121.017807 18.100946,134.429413 
	C11.652687,151.751434 7.172084,169.348358 6.010669,188.020370 
	C4.935206,205.310562 6.321156,222.038696 10.078338,238.853409 
	C15.569664,263.428986 23.737474,286.876892 37.920647,307.824982 
	C42.647331,314.806122 48.684494,320.897797 54.096413,327.417847 
	C58.551888,332.785583 63.131927,338.276428 68.182304,342.827942 
	C75.764214,349.660919 83.432251,356.708252 92.368767,361.927063 
	C102.975159,368.121155 113.477158,374.561310 124.458122,380.022766 
	C131.659637,383.604492 139.654999,385.572601 147.250381,388.383484 
	C165.108810,394.992523 184.042664,395.836273 202.587570,396.883575 
	C221.218811,397.935760 239.869217,394.351929 258.261230,390.434875 
	C263.834778,389.247864 268.935242,387.055115 274.074341,385.039154 
	C285.302490,380.634644 296.355591,376.020996 306.972137,369.892944 
	C326.652344,358.533203 343.053223,343.760681 357.718353,326.834747 
	C377.397797,304.121460 391.233643,278.194946 398.934631,249.070557 
	C399.270874,247.798828 399.864197,246.595093 400.668884,245.179840 
	C401.000000,250.022095 401.000000,255.044189 401.000000,260.533142 
z"/>
<path fill="#000000" opacity="1.000000" stroke="none" 
	d="
M67.358299,170.724030 
	C52.351788,158.911942 46.546013,141.361923 52.176224,125.270309 
	C56.735924,112.238304 66.449249,105.563248 79.686615,103.716347 
	C95.440773,101.518295 111.306961,102.351830 127.074257,103.271294 
	C140.603943,104.060272 154.024994,102.889465 167.494934,102.801285 
	C180.778793,102.714333 194.130493,101.576614 207.285019,104.750870 
	C219.039383,107.587250 227.154846,114.367050 231.325195,125.833801 
	C232.673050,129.539856 231.706238,131.154160 227.726410,131.096817 
	C222.061249,131.015198 216.394165,131.056641 210.727936,131.065964 
	C208.756088,131.069199 207.216080,130.508148 206.234665,128.584900 
	C200.165939,116.692169 189.112228,113.544907 177.121109,112.425667 
	C172.512100,111.995461 167.837097,112.171127 163.198517,113.137604 
	C157.196030,114.388268 155.477722,116.104858 155.375229,122.647835 
	C155.197769,133.977615 155.092316,145.309921 155.104523,156.641006 
	C155.135574,185.470871 155.187454,214.301056 155.372299,243.130203 
	C155.417084,250.114044 156.091599,257.091797 156.308319,264.077576 
	C156.397903,266.965118 157.832870,268.674164 160.174500,269.985138 
	C161.765549,270.875916 163.429520,271.739075 164.777130,272.934479 
	C166.263351,274.252838 166.503021,276.167969 165.791092,278.016937 
	C165.139969,279.707977 163.621246,279.841370 162.032547,279.751862 
	C145.215271,278.803925 128.421265,279.697540 111.605408,280.049011 
	C84.896484,280.607208 62.402199,271.685760 48.473576,247.423431 
	C41.203789,234.760178 39.918354,220.894897 44.129658,206.867645 
	C48.527061,192.220535 59.466602,184.877350 73.784927,181.735870 
	C77.013039,181.027618 80.259285,180.402008 84.565254,179.519440 
	C78.235191,176.528488 72.503410,174.546204 67.358299,170.724030 
M130.779984,211.500031 
	C130.768005,204.834793 130.680099,198.168411 130.779190,191.504822 
	C130.822357,188.602631 129.796204,187.250290 126.759048,187.194321 
	C115.436333,186.985703 104.129044,186.663712 92.978333,189.324631 
	C82.283882,191.876648 74.862091,197.957962 71.176743,208.506943 
	C67.177513,219.954437 67.317902,231.322220 71.233742,242.725662 
	C75.443016,254.983643 83.632812,263.130432 96.272125,266.285736 
	C105.753212,268.652618 115.401192,268.016754 125.053795,267.135773 
	C129.492142,266.730682 130.829819,264.902771 130.770081,260.487518 
	C130.553680,244.494675 130.743713,228.496323 130.779984,211.500031 
M130.745224,170.180267 
	C130.747559,162.354630 130.880829,154.526276 130.718094,146.704086 
	C130.527893,137.562134 131.257523,128.400391 130.035706,119.273529 
	C129.700882,116.772606 128.879547,115.467911 126.155525,115.119446 
	C115.699585,113.781898 105.264366,113.405296 94.941757,115.818672 
	C89.695976,117.045097 84.907295,119.452217 81.360725,123.732307 
	C70.298050,137.083038 73.632240,167.757233 97.284584,173.710632 
	C107.142143,176.191803 117.058189,175.817535 127.025314,175.712173 
	C130.299332,175.677551 130.851151,173.714966 130.745224,170.180267 
z"/>
<path fill="#000000" opacity="1.000000" stroke="none" 
	d="
M266.955078,283.368958 
	C245.632721,283.365265 224.802170,283.362518 203.971603,283.355652 
	C202.638794,283.355225 201.305130,283.347107 199.973419,283.299164 
	C198.366074,283.241302 196.958542,282.899780 196.872589,280.866486 
	C196.784927,278.793030 197.857376,277.852631 199.832321,277.640778 
	C202.315598,277.374390 204.782379,276.924744 207.270065,276.735260 
	C211.278915,276.429840 213.354599,274.202881 213.612000,270.358643 
	C215.428284,243.233673 214.516418,216.073914 214.547104,188.926437 
	C214.547775,188.326233 214.149185,187.725571 213.726608,186.530609 
	C208.256149,188.208344 202.943329,189.837738 197.435165,191.527039 
	C198.119553,195.948059 200.983063,198.708344 203.372238,201.469620 
	C208.013123,206.833252 209.918564,212.647003 209.383698,219.765945 
	C208.848373,226.891068 209.312485,234.088776 209.249512,241.253876 
	C209.235748,242.818588 209.842133,244.586670 208.377945,245.917114 
	C206.350510,246.034668 205.986313,244.259094 205.193802,243.137161 
	C192.883911,225.710541 180.138016,208.619095 166.366608,192.309967 
	C164.941422,190.622147 163.567841,188.988312 164.721756,186.514572 
	C165.879852,184.031845 168.088806,184.808472 169.954987,184.730637 
	C175.097931,184.516144 180.221542,184.815826 185.393555,184.113144 
	C194.453186,182.882263 202.226990,179.206924 209.048004,172.990982 
	C211.673279,174.939072 212.124359,177.972000 214.373749,180.584000 
	C214.373749,170.761185 214.715836,161.442062 214.219467,152.167816 
	C213.994537,147.964813 210.656387,145.572144 206.241943,145.318710 
	C203.913422,145.185013 201.575760,145.142700 199.258148,144.904388 
	C196.522995,144.623093 195.775253,142.760971 195.837677,140.292221 
	C195.901779,137.756592 197.246582,136.759583 199.656418,136.764740 
	C209.985199,136.786835 220.314133,136.800705 230.642838,136.766113 
	C233.250839,136.757385 234.386093,138.642700 235.663574,140.371048 
	C260.326080,173.737442 285.914032,206.394836 311.383820,239.141983 
	C316.583649,245.827545 321.630371,252.660233 327.648132,258.748688 
	C329.458313,257.563080 328.712158,255.928085 328.713074,254.613251 
	C328.734192,223.784195 328.729767,192.954971 328.621246,162.126144 
	C328.607819,158.314499 328.048279,154.497391 327.618805,150.696716 
	C327.211639,147.093506 324.784698,145.657928 321.450958,145.335617 
	C318.967255,145.095490 316.476135,144.908234 314.004089,144.578888 
	C311.533875,144.249802 310.714355,142.597092 310.904266,140.286011 
	C311.102600,137.872040 312.406525,136.775772 314.840210,136.781509 
	C327.834961,136.812134 340.829803,136.806732 353.824615,136.792465 
	C356.021912,136.790054 357.284393,137.651611 357.302643,140.005417 
	C357.318726,142.073578 357.421661,144.146988 354.654236,144.547501 
	C352.844757,144.809387 351.032837,145.089493 349.211884,145.230682 
	C342.481476,145.752548 340.607788,147.471680 340.375916,154.057419 
	C339.960205,165.866135 339.508026,177.678970 339.421173,189.492661 
	C339.263092,210.988693 339.274231,232.487076 339.392273,253.983521 
	C339.444305,263.465027 339.960938,272.943451 340.192596,282.425079 
	C340.236206,284.209869 340.635651,286.087128 339.150238,288.603729 
	C331.730225,285.859741 323.214325,287.113922 316.976929,279.295532 
	C287.881378,242.825119 259.374390,205.897247 230.594299,169.182175 
	C229.268066,167.490295 227.871735,165.853333 225.337128,164.260452 
	C225.337128,166.432434 225.336792,168.604416 225.337189,170.776398 
	C225.342361,198.772659 225.301437,226.769073 225.395798,254.765045 
	C225.412598,259.748566 225.967926,264.731781 226.316238,269.712219 
	C226.724213,275.545746 229.491135,277.405792 235.856827,276.055847 
	C225.892715,261.769684 230.584244,245.258469 228.737289,229.737457 
	C228.670807,229.178818 229.043106,228.567978 229.223816,227.936401 
	C231.628555,228.293930 232.207703,230.248352 233.236389,231.636688 
	C241.468292,242.746567 249.614746,253.919830 257.857605,265.021515 
	C261.776642,270.299805 265.789581,275.354126 273.503601,274.978394 
	C276.564209,274.829346 276.989716,277.520142 276.924316,280.036377 
	C276.856476,282.647491 275.279541,283.417358 272.944153,283.354889 
	C271.113159,283.305939 269.279388,283.360443 266.955078,283.368958 
z"/>
<path fill="#000000" opacity="1.000000" stroke="none" 
	d="
M347.617432,57.384224 
	C351.273407,60.518654 354.520538,63.605358 358.058594,66.311798 
	C361.543976,68.977959 362.559570,72.981964 364.721832,76.742966 
	C360.350494,77.585899 358.922272,74.658653 357.549164,71.892464 
	C354.224976,65.195755 348.362183,61.342873 342.152710,57.842365 
	C342.010468,57.762177 341.762299,57.766983 341.703186,57.657043 
	C337.749908,50.303860 328.809265,49.150726 323.752777,43.184635 
	C323.599701,43.004005 323.704041,42.605209 323.677246,42.097366 
	C333.914520,43.552376 340.462189,50.620407 347.617432,57.384224 
z"/>
<path fill="#000000" opacity="1.000000" stroke="none" 
	d="
M381.613342,100.822174 
	C381.652985,102.902298 380.745850,102.485977 379.886993,101.765923 
	C373.023224,96.011284 371.659454,87.231606 368.023193,79.642914 
	C371.985138,86.970253 378.846069,92.350082 381.613342,100.822174 
z"/>
<path fill="#000000" opacity="1.000000" stroke="none" 
	d="
M389.177948,117.949875 
	C388.260834,116.078033 386.596619,114.889236 387.075562,112.027763 
	C394.240631,116.324043 393.150940,124.517464 396.969086,129.971832 
	C394.323273,129.148102 393.275421,126.996719 392.429901,124.832420 
	C391.544678,122.566429 391.322601,120.019867 389.177948,117.949875 
z"/>
</svg>